<?xml version="1.0" encoding="UTF-8" standalone="no"?>
<!-- Created with Inkscape (http://www.inkscape.org/) -->

<svg
   width="86.843864mm"
   height="79.443298mm"
   viewBox="0 0 86.843864 79.443298"
   version="1.1"
   id="svg1"
   xml:space="preserve"
   inkscape:export-filename="healthchecks.svg"
   inkscape:export-xdpi="98"
   inkscape:export-ydpi="98"
   xmlns:inkscape="http://www.inkscape.org/namespaces/inkscape"
   xmlns:sodipodi="http://sodipodi.sourceforge.net/DTD/sodipodi-0.dtd"
   xmlns="http://www.w3.org/2000/svg"
   xmlns:svg="http://www.w3.org/2000/svg"><sodipodi:namedview
     id="namedview1"
     pagecolor="#ffffff"
     bordercolor="#000000"
     borderopacity="0.25"
     inkscape:showpageshadow="2"
     inkscape:pageopacity="0.0"
     inkscape:pagecheckerboard="0"
     inkscape:deskcolor="#d1d1d1"
     inkscape:document-units="mm" /><defs
     id="defs1" /><g
     inkscape:label="Layer 1"
     inkscape:groupmode="layer"
     id="layer1"
     transform="translate(-59.60293,-104.9669)"><g
       id="path2"
       style="display:inline;opacity:1;fill:#ff0000;stroke:#ffffff;stroke-opacity:1"
       transform="translate(-1.4690735,13.993968)"><path
         id="path13"
         style="color:#000000;display:inline;fill:#008000;fill-opacity:1;stroke:#ffffff;stroke-width:1;stroke-linejoin:round;stroke-dasharray:none;stroke-opacity:1"
         d="m 83.773233,91.472966 c -12.58052,0 -22.201229,9.620204 -22.201229,22.200714 0,9.89188 2.187398,16.38411 6.755143,22.47666 h 16.450159 l 6.330363,-15.02905 a 1.850185,1.850185 0 0 1 3.403926,-0.014 l 6.912235,16.05484 9.34775,-26.71103 a 1.850185,1.850185 0 0 1 1.89446,-1.23249 1.850185,1.850185 0 0 1 1.6738,1.51774 l 5.30252,29.58786 3.94136,-9.01961 a 1.850185,1.850185 0 0 1 1.69551,-1.10949 h 18.98488 c 2.11969,-4.55396 3.15175,-9.73691 3.15175,-16.52147 0,-12.58051 -9.62017,-22.200714 -22.20071,-22.200714 -8.88035,0 -16.28103,5.180341 -20.72122,12.580624 C 100.05375,96.653307 92.653595,91.472966 83.773233,91.472966 Z m 60.490877,38.722184 c -0.59419,1.27657 -1.28028,2.50291 -2.04742,3.70158 0.76714,-1.19867 1.45323,-2.42501 2.04742,-3.70158 z m -2.04742,3.70158 h -15.72824 l -5.89473,13.49375 a 1.850185,1.850185 0 0 1 -3.51554,-0.41599 l -5.13871,-28.6582 -8.59172,24.54889 a 1.850185,1.850185 0 0 1 -3.445269,0.12144 l -7.072437,-16.42794 -5.119067,12.15998 a 1.850185,1.850185 0 0 1 -1.705322,1.13275 H 71.4267 c 7.016794,7.65871 17.899491,15.65549 33.06723,30.06483 19.07223,-18.11862 31.37597,-26.10254 37.72276,-36.01951 z m -70.78999,5.95468 c -0.527222,-0.57545 -1.030027,-1.149 -1.51567,-1.72341 0.483393,0.5739 0.988722,1.14826 1.51567,1.72341 z M 69.91103,138.128 c -0.05371,-0.0638 -0.109603,-0.12741 -0.162781,-0.1912 0.05332,0.0637 0.10893,0.12751 0.162781,0.1912 z m -0.162781,-0.1912 c -0.496714,-0.59357 -0.972603,-1.18824 -1.421102,-1.78646 0.448651,0.59842 0.9263,1.19291 1.421102,1.78646 z" /></g></g></svg>
